# xmcd
# Copyright (C) 1995-1998 Ti Kan
#
# Track frame offsets:
#       150
#       8406
#       23494
#       38829
#       54188
#       71737
#       89295
#       103244
#       121272
#       139924
#       166625
#
# Disc length: 4086 seconds
#
# Revision: 0
# Processed by: cddbd v1.5.2PL0 Copyright (c) Steve Scherf et al.
# Submitted via: CD-Transfer v1.0
#
DISCID=7e0ff40b
DTITLE=Galegoz - Galician Chimpanzee
DYEAR=06
DGENRE=
TTITLE0=Galician Chimpanzee I
TTITLE1=Nom Quero Ir Fóra
TTITLE2=Aranhoto Galegoz Style
TTITLE3=Galician Champanzee Ii
TTITLE4=Pastores Eléctricos...
TTITLE5=Galician Champanzee Iii
TTITLE6=Derrame Tropical
TTITLE7=Kriminal Festa
TTITLE8=Rematou A Festa
TTITLE9=Galician Chimpanzee Ii Remix
TTITLE10=Data Track
EXTD=
EXTT0=
EXTT1=
EXTT2=
EXTT3=
EXTT4=
EXTT5=
EXTT6=
EXTT7=
EXTT8=
EXTT9=
EXTT10=
PLAYORDER=
